<?xml version="1.0" standalone="no"?>
<!DOCTYPE svg PUBLIC "-//W3C//DTD SVG 20010904//EN"
 "http://www.w3.org/TR/2001/REC-SVG-20010904/DTD/svg10.dtd">
<svg version="1.0" xmlns="http://www.w3.org/2000/svg"
 width="256.000000pt" height="256.000000pt" viewBox="0 0 256.000000 256.000000"
 preserveAspectRatio="xMidYMid meet">

<g transform="translate(0.000000,256.000000) scale(0.100000,-0.100000)"
fill="#000000" stroke="none">
<path d="M250 2382 c0 -16 21 -20 60 -11 19 5 141 8 270 7 220 -2 226 -3 95
-8 -77 -4 200 -5 615 -2 415 2 805 7 865 11 61 4 -97 5 -350 2 -253 -2 -471
-4 -485 -4 -349 10 -1070 13 -1070 5z"/>
<path d="M248 2343 c-34 -3 -48 -8 -48 -19 0 -7 5 -14 10 -14 6 0 10 5 10 10
0 6 8 10 17 10 15 0 14 -2 -3 -15 -10 -8 -28 -15 -39 -16 -15 -1 -16 -2 -4 -6
14 -3 15 -8 5 -28 -6 -14 -13 -25 -16 -25 -4 0 -4 -15 -2 -34 2 -18 -1 -43 -7
-54 -6 -10 -7 -23 -3 -27 10 -10 9 -59 -2 -67 -6 -4 -6 -12 0 -20 6 -7 9 -24
7 -38 -4 -35 -10 -549 -14 -1200 -3 -460 -4 -509 -9 -290 l-6 265 -2 -265 c-2
-298 -1 -307 71 -364 l39 -31 1028 0 1028 0 39 31 c72 57 73 66 71 364 l-2
265 -6 -265 c-4 -216 -6 -159 -9 305 -3 570 -10 1228 -12 1233 -4 10 -1 71 4
80 4 6 3 13 -3 17 -5 3 -9 20 -9 38 0 18 -4 47 -10 65 -6 21 -6 32 0 32 20 0
4 35 -16 36 -11 1 -37 9 -57 18 -34 14 -129 16 -1020 14 -541 -1 -1004 -3
-1030 -5z m1790 -364 c-2 -6 -8 -10 -13 -10 -5 0 -11 4 -13 10 -2 6 4 11 13
11 9 0 15 -5 13 -11z m-1003 -51 c17 -3 55 -2 85 1 42 5 58 3 68 -9 11 -13 13
-13 25 0 16 20 208 22 220 2 5 -7 13 -10 18 -7 5 4 6 11 3 17 -8 13 12 2 39
-20 15 -13 17 -35 17 -172 0 -108 -4 -160 -12 -168 -8 -8 -66 -12 -196 -12
-169 0 -186 2 -209 20 -28 22 -101 27 -133 10 -16 -8 -30 5 -104 102 -47 62
-84 114 -82 115 24 24 401 34 499 13 60 -12 93 -8 82 10 -3 5 -17 10 -31 10
-21 0 -24 4 -19 23 5 19 4 20 -7 6 -10 -13 -25 -15 -66 -11 -47 4 -52 7 -48
26 3 11 0 9 -6 -6 -12 -28 -37 -38 -39 -15 0 10 -2 10 -6 0 -2 -7 -11 -13 -19
-13 -8 0 -14 6 -15 13 0 10 -2 10 -6 0 -11 -28 -30 -13 -26 20 3 24 2 29 -6
17 -6 -8 -11 -23 -11 -32 0 -34 -30 -20 -32 15 l-1 32 -4 -32 c-5 -38 -23 -45
-23 -9 0 14 -5 28 -12 32 -8 5 -9 -2 -5 -24 5 -24 3 -32 -7 -32 -8 0 -17 6
-19 13 -3 7 -6 5 -6 -5 -2 -29 -21 -20 -28 12 -3 17 -10 33 -16 37 -6 4 -8 0
-5 -8 22 -58 21 -59 -17 -59 -28 0 -38 5 -47 25 -6 14 -15 25 -20 25 -5 0 -2
-13 7 -30 l16 -30 -41 0 c-32 0 -46 6 -65 28 -26 29 -34 19 -11 -13 12 -17 12
-21 -3 -33 -14 -12 -14 -13 7 -9 19 5 34 -10 96 -91 40 -54 81 -109 90 -124
l18 -28 -170 0 c-168 0 -171 0 -178 23 -10 29 -5 284 6 312 5 13 20 25 37 28
27 5 47 -8 37 -25 -3 -4 0 -8 5 -8 6 0 11 6 12 13 0 10 2 10 6 0 8 -21 36 -16
30 6 -4 15 2 20 29 23 22 3 35 -1 39 -10 6 -17 51 -11 48 6 -4 15 13 16 22 2
5 -8 11 -7 21 1 11 9 14 8 14 -2 0 -9 3 -10 11 -2 7 7 23 8 47 2 50 -12 52
-11 52 9 0 10 3 13 8 6 4 -6 21 -13 37 -16z m864 -8 c9 0 26 -7 37 -16 18 -15
18 -15 -3 -5 -35 17 -73 14 -74 -6 -1 -17 -2 -17 -6 0 -5 19 -34 22 -66 6 -17
-9 -20 -9 -10 1 13 14 72 30 91 24 8 -2 21 -4 31 -4z m66 -59 c-3 -6 -11 -11
-17 -11 -6 0 -6 6 2 15 14 17 26 13 15 -4z m-195 -7 c0 -14 -3 -14 -15 -4 -8
7 -15 14 -15 16 0 2 7 4 15 4 8 0 15 -7 15 -16z m-43 -100 c-3 -3 -12 -4 -19
-1 -8 3 -5 6 6 6 11 1 17 -2 13 -5z m290 0 c-3 -3 -12 -4 -19 -1 -8 3 -5 6 6
6 11 1 17 -2 13 -5z m-262 -94 c-3 -5 -11 -10 -16 -10 -6 0 -7 5 -4 10 3 6 11
10 16 10 6 0 7 -4 4 -10z m215 -10 c0 -5 -4 -10 -10 -10 -5 0 -10 5 -10 10 0
6 5 10 10 10 6 0 10 -4 10 -10z m-113 -52 c-3 -8 -6 -5 -6 6 -1 11 2 17 5 13
3 -3 4 -12 1 -19z m-1236 -248 c11 -6 19 -21 19 -35 0 -23 -4 -25 -41 -25 -28
0 -38 -4 -33 -12 4 -7 3 -8 -4 -4 -18 11 -14 64 6 75 22 13 29 13 53 1z m210
0 c11 -6 19 -21 19 -35 0 -23 -4 -25 -41 -25 -28 0 -38 -4 -33 -12 4 -7 3 -8
-4 -4 -18 11 -14 64 6 75 22 13 29 13 53 1z m220 0 c11 -6 19 -21 19 -35 0
-23 -4 -25 -41 -25 -28 0 -38 -4 -33 -12 4 -7 3 -8 -4 -4 -18 11 -14 64 6 75
22 13 29 13 53 1z m210 0 c11 -6 19 -21 19 -35 0 -23 -4 -25 -41 -25 -28 0
-38 -4 -33 -12 4 -7 3 -8 -4 -4 -18 11 -14 64 6 75 22 13 29 13 53 1z m210 0
c11 -6 19 -21 19 -35 0 -23 -4 -25 -41 -25 -28 0 -38 -4 -33 -12 4 -7 3 -8 -4
-4 -18 11 -14 64 6 75 22 13 29 13 53 1z m220 0 c11 -6 19 -21 19 -35 0 -23
-4 -25 -41 -25 -28 0 -38 -4 -33 -12 4 -7 3 -8 -4 -4 -18 11 -14 64 6 75 22
13 29 13 53 1z m271 -17 c23 -21 23 -36 -3 -59 -22 -19 -43 -13 -63 19 -8 12
-5 21 8 36 23 25 34 26 58 4z m-993 -309 c33 -17 62 -41 78 -65 30 -45 43
-132 22 -144 -9 -6 -11 -4 -6 8 3 9 -7 45 -23 80 -28 63 -31 65 -95 91 l-65
26 -65 -26 c-64 -26 -67 -28 -95 -91 -16 -35 -27 -71 -24 -81 5 -14 2 -13 -11
3 -41 50 11 156 96 199 68 34 120 34 188 0z m-33 -48 c56 -23 60 -27 82 -80
l22 -56 -24 -58 c-23 -53 -28 -59 -80 -79 l-56 -23 -56 23 c-52 20 -57 26 -80
79 l-24 58 22 56 c21 52 27 58 78 79 30 13 55 24 56 24 0 1 27 -10 60 -23z
m874 6 c18 -11 35 -23 37 -29 7 -19 -26 -23 -61 -8 -47 20 -69 19 -114 -4 -42
-22 -72 -66 -72 -106 0 -23 -2 -25 -15 -11 -37 37 2 117 75 154 54 27 104 28
150 4z m-21 -66 c40 -21 61 -77 45 -120 -9 -24 -189 -24 -198 0 -33 87 66 165
153 120z m96 -3 c18 -45 23 -83 10 -83 -7 0 -16 -6 -18 -12 -3 -7 -6 -3 -6 10
-1 13 -6 32 -12 43 -10 20 -4 59 11 59 4 0 11 -8 15 -17z m-138 -329 c-3 -3
-12 -4 -19 -1 -8 3 -5 6 6 6 11 1 17 -2 13 -5z m-850 -30 c-3 -3 -12 -4 -19
-1 -8 3 -5 6 6 6 11 1 17 -2 13 -5z m-687 -379 c13 -14 21 -25 18 -25 -2 0
-15 11 -28 25 -13 14 -21 25 -18 25 2 0 15 -11 28 -25z m2170 22 c0 -2 -12
-14 -27 -28 l-28 -24 24 28 c23 25 31 32 31 24z m-612 -74 c-269 -2 -707 -2
-976 0 -268 1 -48 2 488 2 536 0 756 -1 488 -2z"/>
<path d="M1319 1917 c6 -8 7 -18 3 -22 -4 -5 -1 -5 6 -1 18 10 15 36 -4 36
-13 0 -14 -3 -5 -13z"/>
<path d="M931 1894 c0 -11 3 -14 6 -6 3 7 2 16 -1 19 -3 4 -6 -2 -5 -13z"/>
<path d="M1101 1894 c0 -11 3 -14 6 -6 3 7 2 16 -1 19 -3 4 -6 -2 -5 -13z"/>
<path d="M1420 1820 c0 -13 7 -20 20 -20 13 0 20 7 20 20 0 13 -7 20 -20 20
-13 0 -20 -7 -20 -20z"/>
<path d="M950 1773 c0 -21 34 -93 44 -93 7 0 18 17 25 38 8 20 16 43 18 50 11
27 -19 10 -31 -19 l-13 -31 -11 31 c-10 27 -32 44 -32 24z"/>
<path d="M1052 1733 c3 -48 3 -48 38 -48 35 0 35 0 38 48 4 55 -15 65 -20 10
-2 -26 -8 -38 -18 -38 -10 0 -16 12 -18 38 -5 55 -24 45 -20 -10z"/>
</g>
</svg>
