<?xml version="1.0" standalone="no"?>
<!DOCTYPE svg PUBLIC "-//W3C//DTD SVG 20010904//EN"
 "http://www.w3.org/TR/2001/REC-SVG-20010904/DTD/svg10.dtd">
<svg version="1.0" xmlns="http://www.w3.org/2000/svg"
 width="256.000000pt" height="256.000000pt" viewBox="0 0 256.000000 256.000000"
 preserveAspectRatio="xMidYMid meet">

<g transform="translate(0.000000,256.000000) scale(0.100000,-0.100000)"
fill="#000000" stroke="none">
<path d="M0 1280 l0 -1280 1280 0 1280 0 0 1280 0 1280 -1280 0 -1280 0 0
-1280z m1930 465 c42 -22 100 -129 124 -227 5 -23 2 -27 -24 -33 -17 -4 -52
-28 -78 -54 -62 -62 -162 -111 -240 -118 -57 -5 -62 -4 -85 23 -20 23 -33 28
-73 30 -44 1 -55 6 -108 55 l-59 54 -76 -1 c-66 -1 -68 0 -13 3 34 2 62 7 62
12 0 4 -16 16 -35 27 -19 10 -35 21 -35 25 0 3 23 18 51 33 44 25 55 27 89 18
34 -8 43 -7 72 14 40 30 51 30 105 -2 62 -36 83 -28 144 56 28 39 60 77 72 85
27 19 70 19 107 0z m-789 -207 c71 -58 73 -51 -35 -114 -84 -50 -192 -84 -265
-84 -34 0 -61 3 -61 8 1 14 49 62 63 62 7 0 35 15 63 32 47 32 48 33 22 36
-39 5 -35 25 11 61 84 67 121 67 202 -1z m-270 -65 c-5 -10 -21 -29 -35 -42
-51 -48 -190 -38 -276 19 l-45 30 180 3 c99 1 181 4 183 5 1 1 -2 -6 -7 -15z
m-166 -133 c-3 -5 -12 -10 -18 -10 -7 0 -6 4 3 10 19 12 23 12 15 0z m12 -198
c7 -4 13 -41 15 -90 2 -69 1 -82 -12 -82 -9 0 -20 4 -25 9 -6 5 -21 11 -35 13
-24 3 -25 7 -28 72 -2 49 1 72 10 77 16 11 59 11 75 1z m131 -75 c3 -77 3 -77
-23 -77 -24 0 -25 1 -25 73 0 77 4 90 30 85 12 -3 16 -20 18 -81z m256 77 c9
-3 16 -15 16 -26 0 -17 -5 -20 -30 -14 -22 4 -30 2 -30 -9 0 -8 12 -15 28 -17
24 -3 27 -7 27 -43 l0 -40 -45 0 c-39 0 -45 3 -48 23 -3 17 2 22 17 22 12 0
21 -4 21 -10 0 -5 5 -10 10 -10 24 0 7 28 -20 34 -27 5 -30 9 -30 45 0 22 5
42 13 44 18 8 53 8 71 1z m184 -11 c2 -7 -3 -13 -12 -13 -13 0 -16 -12 -16
-65 0 -63 -1 -65 -25 -65 -24 0 -25 2 -25 65 0 51 -3 65 -15 65 -16 0 -20 12
-8 24 12 11 96 2 101 -11z m102 -48 c0 -51 3 -65 15 -65 12 0 15 14 15 66 0
57 2 65 18 62 14 -3 17 -15 17 -78 l0 -75 -50 0 -50 0 -3 78 c-3 72 -1 77 18
77 18 0 20 -6 20 -65z m238 56 c9 -5 12 -28 10 -77 l-3 -69 -52 -3 -53 -3 0
74 c0 40 3 77 7 80 9 10 75 8 91 -2z m130 -74 c3 -77 3 -77 -23 -77 -24 0 -25
1 -25 73 0 77 4 90 30 85 12 -3 16 -20 18 -81z m166 67 c20 -19 21 -103 3
-128 -9 -13 -23 -17 -52 -14 l-40 3 -3 69 c-2 49 1 72 10 77 21 14 65 10 82
-7z m-1219 -285 c1 -21 -4 -26 -22 -26 -19 0 -23 5 -23 29 0 25 4 29 23 26 16
-2 22 -10 22 -29z m65 21 c-12 -8 -12 -10 -1 -10 10 0 11 -3 2 -14 -9 -11 -9
-15 1 -19 8 -4 7 -6 -4 -6 -13 -1 -18 7 -18 29 0 22 5 30 18 30 14 0 15 -2 2
-10z m90 -1 c0 -5 -4 -7 -10 -4 -5 3 -10 -1 -10 -9 0 -9 5 -16 10 -16 6 0 10
-4 10 -10 0 -5 -9 -10 -20 -10 -16 0 -20 7 -20 30 0 23 4 30 20 30 11 0 20 -5
20 -11z m170 -1 c0 -9 3 -9 12 0 19 19 28 14 28 -18 0 -16 -4 -30 -10 -30 -5
0 -10 5 -10 10 0 12 -22 9 -32 -5 -4 -5 -8 5 -8 23 0 17 5 32 10 32 6 0 10 -5
10 -12z m87 -35 c-3 -10 -5 -2 -5 17 0 19 2 27 5 18 2 -10 2 -26 0 -35z m85
18 c3 -23 1 -28 -16 -28 -16 0 -21 6 -21 28 0 20 5 29 16 29 11 0 18 -11 21
-29z m135 9 c-3 -11 -1 -20 4 -20 5 0 9 -4 9 -10 0 -5 -11 -10 -25 -10 -21 0
-25 5 -25 30 0 24 4 30 21 30 16 0 20 -5 16 -20z m131 8 c9 -9 12 -9 12 0 0 7
5 12 10 12 6 0 10 -14 10 -31 0 -28 -2 -30 -17 -18 -13 11 -17 11 -20 2 -8
-24 -23 -13 -23 17 0 32 9 37 28 18z m113 -20 c6 -23 4 -26 -17 -24 -24 1 -29
12 -18 41 9 22 27 14 35 -17z m82 10 c3 -12 4 -25 1 -30 -7 -12 -34 -10 -34 3
0 5 6 7 13 4 6 -4 4 0 -7 9 -10 8 -15 19 -11 25 11 18 32 12 38 -11z m69 -8
c-2 -16 -8 -30 -12 -30 -4 0 -10 14 -12 30 -4 23 -1 30 12 30 13 0 16 -7 12
-30z m73 8 c-3 -12 1 -26 8 -30 8 -5 4 -8 -10 -8 -19 0 -23 6 -23 30 0 19 5
30 14 30 10 0 13 -8 11 -22z m92 -7 c-3 -40 -37 -39 -37 1 0 21 5 28 20 28 15
0 19 -6 17 -29z m-977 -25 c0 -3 -4 -8 -10 -11 -5 -3 -10 -1 -10 4 0 6 5 11
10 11 6 0 10 -2 10 -4z"/>
<path d="M670 1070 c0 -27 5 -50 10 -50 6 0 10 23 10 50 0 28 -4 50 -10 50 -5
0 -10 -22 -10 -50z"/>
<path d="M1580 1070 c0 -27 5 -50 10 -50 6 0 10 23 10 50 0 28 -4 50 -10 50
-5 0 -10 -22 -10 -50z"/>
<path d="M1877 1113 c-11 -10 -8 -93 3 -93 6 0 10 23 10 50 0 51 -1 55 -13 43z"/>
</g>
</svg>
