<svg version="1.1" id="Layer_1" xmlns="http://www.w3.org/2000/svg" xmlns:xlink="http://www.w3.org/1999/xlink" x="0px" y="0px"
	 width="100%" viewBox="0 0 500 500" enable-background="new 0 0 500 500" xml:space="preserve">
<path fill="#FFFFFF" opacity="1.000000" stroke="none" 
	d="
M236.000000,501.000000 
	C157.333359,501.000000 79.166702,501.000000 1.000042,501.000000 
	C1.000028,334.333405 1.000028,167.666779 1.000014,1.000131 
	C167.666565,1.000088 334.333130,1.000088 500.999756,1.000044 
	C500.999847,167.666519 500.999847,334.333038 500.999939,500.999786 
	C412.833344,501.000000 324.666656,501.000000 236.000000,501.000000 
M34.340778,267.457947 
	C34.517986,267.705688 34.750938,267.878113 35.131432,268.665466 
	C43.645332,282.793427 53.481216,295.823059 68.139626,304.075500 
	C80.027351,310.768127 92.326309,311.931274 105.151512,303.975952 
	C105.397186,303.941650 105.642868,303.907349 106.613037,304.223846 
	C120.349442,307.704803 134.190125,307.848785 148.089233,305.420807 
	C170.424850,301.519104 190.318192,291.684906 209.450745,280.029236 
	C216.671814,275.630096 223.882019,271.213104 231.655136,267.187897 
	C243.379410,278.197052 254.837570,289.574982 269.165100,297.297668 
	C283.774353,305.172211 299.008514,306.525391 315.359528,300.971130 
	C315.570251,300.978180 315.781006,300.985199 316.421021,301.513031 
	C326.969147,308.288177 338.355408,312.861664 351.395477,314.884094 
	C351.599274,314.947235 351.803101,315.010406 352.160339,315.744537 
	C354.456757,319.783600 356.489624,324.004486 359.118225,327.814362 
	C362.206848,332.290955 365.230194,337.099762 369.309875,340.548370 
	C379.199615,348.908295 396.007538,346.841217 404.659698,334.727325 
	C414.525330,320.914398 422.338623,305.635559 430.986877,290.988495 
	C430.986877,290.988495 430.983124,291.045624 431.526733,290.868744 
	C431.730194,290.547760 431.933655,290.226746 432.617737,289.544281 
	C433.145447,288.946228 433.673187,288.348175 434.555023,287.582794 
	C434.747559,287.400330 434.912659,287.195709 434.982697,286.973145 
	C434.982697,286.973145 434.976990,287.040649 435.653625,286.862152 
	C446.417023,279.882538 457.180450,272.902893 468.418793,265.823029 
	C468.730164,265.642914 468.881439,265.373047 468.918854,264.216248 
	C465.995087,253.851624 463.582855,243.307617 460.025879,233.165054 
	C454.876068,218.480347 447.799774,204.848236 435.826599,194.214600 
	C426.577301,186.000076 409.228943,182.954651 399.542877,192.980240 
	C394.048187,198.667496 389.055725,204.859070 384.062897,211.006897 
	C378.630280,217.696304 373.870239,224.974838 368.065643,231.307907 
	C361.456848,238.518448 354.192444,238.875687 346.181458,233.517136 
	C343.560547,231.763992 341.147247,229.686081 338.462769,228.044891 
	C326.170654,220.529892 321.878021,221.716599 313.274231,228.652237 
	C309.402283,231.773453 304.487396,233.600922 299.703705,235.301270 
	C299.197754,233.063400 298.794250,230.796555 298.170776,228.591919 
	C284.399841,179.896011 238.757767,150.263168 188.142303,158.022644 
	C153.848282,163.279984 129.664108,182.799606 114.479591,213.770950 
	C106.535995,229.973236 105.120430,247.255203 105.029327,264.980072 
	C82.936142,264.987061 60.842712,264.953827 38.750298,265.088715 
	C37.227371,265.097961 35.712105,266.361969 34.340778,267.457947 
z"/>
<path fill="#47BDAB" opacity="1.000000" stroke="none" 
	d="
M105.959122,264.916534 
	C105.120430,247.255203 106.535995,229.973236 114.479591,213.770950 
	C129.664108,182.799606 153.848282,163.279984 188.142303,158.022644 
	C238.757767,150.263168 284.399841,179.896011 298.170776,228.591919 
	C298.794250,230.796555 299.197754,233.063400 299.833313,235.583893 
	C299.962921,235.866531 299.799225,235.913651 299.423767,235.975159 
	C296.146301,235.991364 293.242676,235.863342 290.342712,235.920822 
	C286.312866,236.000671 281.723053,235.027161 278.367035,236.610992 
	C269.615265,240.741287 261.404572,246.018066 252.629303,250.764526 
	C237.723877,245.124054 222.821075,242.382126 206.917847,245.099854 
	C206.379913,244.980484 206.164490,244.933853 205.804779,244.590057 
	C196.544067,236.296295 186.255936,234.124176 174.907196,238.555939 
	C161.321121,243.861420 151.840927,254.234131 142.432159,265.190979 
	C129.966568,265.102692 117.962845,265.009613 105.959122,264.916534 
z"/>
<path fill="#B7C3E8" opacity="1.000000" stroke="none" 
	d="
M300.004333,235.940979 
	C304.487396,233.600922 309.402283,231.773453 313.274231,228.652237 
	C321.878021,221.716599 326.170654,220.529892 338.462769,228.044891 
	C341.147247,229.686081 343.560547,231.763992 346.181458,233.517136 
	C354.192444,238.875687 361.456848,238.518448 368.065643,231.307907 
	C373.870239,224.974838 378.630280,217.696304 384.062897,211.006897 
	C389.055725,204.859070 394.048187,198.667496 399.542877,192.980240 
	C409.228943,182.954651 426.577301,186.000076 435.826599,194.214600 
	C447.799774,204.848236 454.876068,218.480347 460.025879,233.165054 
	C463.582855,243.307617 465.995087,253.851624 468.614563,264.647461 
	C468.128143,265.130249 467.945984,265.181824 467.493774,265.230286 
	C466.863983,265.212280 466.504272,265.197418 465.666382,265.117676 
	C410.466644,265.057953 355.745056,265.063049 301.012207,265.036530 
	C301.000916,265.004913 301.000641,264.937775 301.002136,264.475983 
	C300.602173,254.647339 300.200714,245.280502 299.799255,235.913651 
	C299.799225,235.913651 299.962921,235.866531 300.004333,235.940979 
z"/>
<path fill="#D6A1FF" opacity="1.000000" stroke="none" 
	d="
M315.991760,300.992249 
	C315.781006,300.985199 315.570251,300.978180 314.869904,300.665710 
	C312.607452,299.133148 310.637573,298.113281 309.093658,296.645416 
	C298.720978,286.783691 288.438843,276.826752 278.403076,266.602356 
	C281.447174,266.202118 284.219574,266.162994 286.982971,265.984283 
	C291.658539,265.681885 296.328400,265.291290 301.000641,264.937775 
	C301.000641,264.937775 301.000916,265.004913 301.311310,265.319275 
	C303.432129,265.755371 305.242493,265.982635 307.052948,265.983368 
	C355.771027,266.002808 404.489136,265.988922 453.207184,266.037018 
	C455.111664,266.038879 457.015656,266.596588 458.561462,266.973755 
	C447.795929,270.618195 440.000946,277.219513 434.976990,287.040649 
	C434.976990,287.040649 434.982697,286.973145 434.841980,287.066162 
	C434.468201,287.300079 434.301422,287.497070 434.200897,287.750122 
	C433.673187,288.348175 433.145447,288.946228 432.075165,289.805115 
	C431.349426,290.392517 431.166260,290.719055 430.983124,291.045624 
	C430.983124,291.045624 430.986877,290.988495 430.653015,290.887695 
	C427.464783,292.462708 424.534424,294.022583 421.769257,295.834534 
	C410.200226,303.415497 398.485687,311.144623 384.637024,313.300018 
	C373.927734,314.966766 362.895569,314.559052 352.006958,315.073578 
	C351.803101,315.010406 351.599274,314.947235 351.091034,314.435303 
	C342.703278,299.938568 330.958191,295.599304 315.991760,300.992249 
z"/>
<path fill="#B7C3E8" opacity="1.000000" stroke="none" 
	d="
M231.097168,266.804230 
	C223.882019,271.213104 216.671814,275.630096 209.450745,280.029236 
	C190.318192,291.684906 170.424850,301.519104 148.089233,305.420807 
	C134.190125,307.848785 120.349442,307.704803 106.456505,303.786499 
	C111.876831,298.222046 117.453690,293.094940 123.294662,287.867065 
	C124.356354,287.277679 125.153946,286.789062 126.332718,286.198730 
	C139.456039,282.130188 150.579300,275.476349 160.215881,265.963776 
	C160.411469,265.897217 160.824661,265.897919 161.303314,265.930481 
	C184.839966,266.003815 207.897934,266.044525 231.010559,266.261230 
	C231.065186,266.437164 231.097168,266.804230 231.097168,266.804230 
z"/>
<path fill="#38D0D7" opacity="1.000000" stroke="none" 
	d="
M352.083649,315.409058 
	C362.895569,314.559052 373.927734,314.966766 384.637024,313.300018 
	C398.485687,311.144623 410.200226,303.415497 421.769257,295.834534 
	C424.534424,294.022583 427.464783,292.462708 430.681519,290.890381 
	C422.338623,305.635559 414.525330,320.914398 404.659698,334.727325 
	C396.007538,346.841217 379.199615,348.908295 369.309875,340.548370 
	C365.230194,337.099762 362.206848,332.290955 359.118225,327.814362 
	C356.489624,324.004486 354.456757,319.783600 352.083649,315.409058 
z"/>
<path fill="#38CFD7" opacity="1.000000" stroke="none" 
	d="
M231.376160,266.996063 
	C231.097168,266.804230 231.065186,266.437164 231.055054,266.110260 
	C231.044907,265.783356 230.992722,265.474426 231.458405,265.376740 
	C246.565964,265.148041 261.207855,265.017029 276.111206,265.053955 
	C276.957550,265.781464 277.542450,266.341064 278.127350,266.900665 
	C288.438843,276.826752 298.720978,286.783691 309.093658,296.645416 
	C310.637573,298.113281 312.607452,299.133148 314.557678,300.615082 
	C299.008514,306.525391 283.774353,305.172211 269.165100,297.297668 
	C254.837570,289.574982 243.379410,278.197052 231.376160,266.996063 
z"/>
<path fill="#38D0D7" opacity="1.000000" stroke="none" 
	d="
M104.412659,304.064941 
	C92.326309,311.931274 80.027351,310.768127 68.139626,304.075500 
	C53.481216,295.823059 43.645332,282.793427 35.069908,268.330139 
	C35.008385,267.994843 34.980679,268.018799 35.333561,268.002777 
	C40.499615,271.329041 45.312782,274.671295 50.197079,278.313812 
	C50.844101,278.758484 51.419998,278.902924 51.993626,279.022095 
	C51.991356,278.996826 51.946117,279.019867 52.043785,279.349854 
	C53.487541,280.628296 54.794086,281.639648 56.185799,282.515625 
	C71.236359,291.989105 87.245674,299.324371 104.412659,304.064941 
z"/>
<path fill="#963BFE" opacity="1.000000" stroke="none" 
	d="
M104.782089,304.020447 
	C87.245674,299.324371 71.236359,291.989105 56.185799,282.515625 
	C54.794086,281.639648 53.487541,280.628296 52.416447,279.290710 
	C53.324688,279.086853 54.027836,279.152283 54.580990,279.474854 
	C68.898186,287.824371 84.419914,291.573578 100.880501,290.831879 
	C108.291817,290.497925 115.648880,288.959625 123.030548,287.967804 
	C117.453690,293.094940 111.876831,298.222046 106.094261,303.611115 
	C105.642868,303.907349 105.397186,303.941650 104.782089,304.020447 
z"/>
<path fill="#EA62B0" opacity="1.000000" stroke="none" 
	d="
M316.206390,301.252625 
	C330.958191,295.599304 342.703278,299.938568 350.802338,314.297028 
	C338.355408,312.861664 326.969147,308.288177 316.206390,301.252625 
z"/>
<path fill="#EA62B0" opacity="1.000000" stroke="none" 
	d="
M435.315308,286.951416 
	C440.000946,277.219513 447.795929,270.618195 458.933319,266.884644 
	C461.823883,266.205566 463.984192,265.694031 466.144531,265.182526 
	C466.504272,265.197418 466.863983,265.212280 467.539734,265.401794 
	C467.855713,265.576447 467.943848,265.923279 467.943848,265.923279 
	C457.180450,272.902893 446.417023,279.882538 435.315308,286.951416 
z"/>
<path fill="#DCA0E6" opacity="1.000000" stroke="none" 
	d="
M105.494225,264.948303 
	C117.962845,265.009613 129.966568,265.102692 142.447845,265.333466 
	C142.925385,265.471161 142.932358,265.759247 142.698730,265.922974 
	C141.991852,266.410034 141.518585,266.733429 140.754318,266.750519 
	C139.656479,266.298584 138.849731,266.026245 138.042786,266.025635 
	C104.934006,266.001648 71.825188,265.991760 38.716465,266.039490 
	C37.481632,266.041260 36.247650,266.633331 34.809990,266.988647 
	C34.606709,267.026947 34.193283,267.042480 34.193279,267.042480 
	C35.712105,266.361969 37.227371,265.097961 38.750298,265.088715 
	C60.842712,264.953827 82.936142,264.987061 105.494225,264.948303 
z"/>
<path fill="#DCA0E6" opacity="1.000000" stroke="none" 
	d="
M468.181335,265.873169 
	C467.943848,265.923279 467.855713,265.576447 467.809753,265.404938 
	C467.945984,265.181824 468.128143,265.130249 468.591461,265.046051 
	C468.881439,265.373047 468.730164,265.642914 468.181335,265.873169 
z"/>
<path fill="#38D0D7" opacity="1.000000" stroke="none" 
	d="
M34.267029,267.250214 
	C34.193283,267.042480 34.606709,267.026947 34.816254,267.256287 
	C35.010765,267.663330 34.995724,267.841064 34.980679,268.018799 
	C34.980679,268.018799 35.008385,267.994843 35.024014,267.985046 
	C34.750938,267.878113 34.517986,267.705688 34.267029,267.250214 
z"/>
<path fill="#EA62B0" opacity="1.000000" stroke="none" 
	d="
M434.377960,287.666443 
	C434.301422,287.497070 434.468201,287.300079 434.875793,287.064056 
	C434.912659,287.195709 434.747559,287.400330 434.377960,287.666443 
z"/>
<path fill="#38D0D7" opacity="1.000000" stroke="none" 
	d="
M431.254944,290.957184 
	C431.166260,290.719055 431.349426,290.392517 431.834839,289.985840 
	C431.933655,290.226746 431.730194,290.547760 431.254944,290.957184 
z"/>
<path fill="#90B5D6" opacity="1.000000" stroke="none" 
	d="
M278.403076,266.602356 
	C277.542450,266.341064 276.957550,265.781464 275.909729,264.812805 
	C267.957214,259.881683 260.467682,255.359634 252.978119,250.837585 
	C261.404572,246.018066 269.615265,240.741287 278.367035,236.610992 
	C281.723053,235.027161 286.312866,236.000671 290.342712,235.920822 
	C293.242676,235.863342 296.146301,235.991364 299.423767,235.975159 
	C300.200714,245.280502 300.602173,254.647339 301.002136,264.475983 
	C296.328400,265.291290 291.658539,265.681885 286.982971,265.984283 
	C284.219574,266.162994 281.447174,266.202118 278.403076,266.602356 
z"/>
<path fill="#AE93EC" opacity="1.000000" stroke="none" 
	d="
M230.992722,265.474426 
	C230.992722,265.474426 231.044907,265.783356 231.000412,265.934326 
	C207.897934,266.044525 184.839966,266.003815 161.510986,265.663177 
	C174.080978,254.035538 189.260498,247.813843 205.949081,244.887222 
	C206.164490,244.933853 206.379913,244.980484 207.085648,245.352753 
	C208.961914,246.854416 210.345795,248.032867 211.734207,249.205994 
	C218.153030,254.629623 224.573090,260.051758 230.992722,265.474426 
z"/>
<path fill="#C1529C" opacity="1.000000" stroke="none" 
	d="
M231.458405,265.376740 
	C224.573090,260.051758 218.153030,254.629623 211.734207,249.205994 
	C210.345795,248.032867 208.961914,246.854416 207.408173,245.425491 
	C222.821075,242.382126 237.723877,245.124054 252.629303,250.764542 
	C260.467682,255.359634 267.957214,259.881683 275.648254,264.644867 
	C261.207855,265.017029 246.565964,265.148041 231.458405,265.376740 
z"/>
<path fill="#12C2C5" opacity="1.000000" stroke="none" 
	d="
M205.804779,244.590057 
	C189.260498,247.813843 174.080978,254.035538 161.032318,265.630615 
	C160.824661,265.897919 160.411469,265.897217 159.751709,265.881958 
	C153.705414,265.830902 148.318893,265.795074 142.932358,265.759247 
	C142.932358,265.759247 142.925385,265.471161 142.909698,265.328674 
	C151.840927,254.234131 161.321121,243.861420 174.907196,238.555939 
	C186.255936,234.124176 196.544067,236.296295 205.804779,244.590057 
z"/>
<path fill="#DCA0E6" opacity="1.000000" stroke="none" 
	d="
M465.666382,265.117676 
	C463.984192,265.694031 461.823883,266.205566 459.291687,266.806183 
	C457.015656,266.596588 455.111664,266.038879 453.207184,266.037018 
	C404.489136,265.988922 355.771027,266.002808 307.052948,265.983368 
	C305.242493,265.982635 303.432129,265.755371 301.322571,265.350891 
	C355.745056,265.063049 410.466644,265.057953 465.666382,265.117676 
z"/>
<path fill="#D5A0FE" opacity="1.000000" stroke="none" 
	d="
M35.333561,268.002777 
	C34.995724,267.841064 35.010765,267.663330 35.019535,267.217957 
	C36.247650,266.633331 37.481632,266.041260 38.716465,266.039490 
	C71.825188,265.991760 104.934006,266.001648 138.042786,266.025635 
	C138.849731,266.026245 139.656479,266.298584 140.600555,267.045959 
	C138.419083,270.398102 136.028244,273.091522 133.800293,275.913574 
	C131.111862,279.318878 128.561584,282.833252 125.951523,286.300415 
	C125.153946,286.789062 124.356354,287.277679 123.294662,287.867065 
	C115.648880,288.959625 108.291817,290.497925 100.880501,290.831879 
	C84.419914,291.573578 68.898186,287.824371 54.580990,279.474854 
	C54.027836,279.152283 53.324688,279.086853 52.318779,278.960754 
	C51.946117,279.019867 51.991356,278.996826 51.913700,278.728638 
	C51.266014,278.311462 50.695984,278.162537 50.125954,278.013580 
	C45.312782,274.671295 40.499615,271.329041 35.333561,268.002777 
z"/>
<path fill="#EA62B0" opacity="1.000000" stroke="none" 
	d="
M126.332710,286.198730 
	C128.561584,282.833252 131.111862,279.318878 133.800293,275.913574 
	C136.028244,273.091522 138.419083,270.398102 140.891541,267.352234 
	C141.518585,266.733429 141.991852,266.410034 142.698730,265.922974 
	C148.318893,265.795074 153.705414,265.830902 159.556122,265.948547 
	C150.579300,275.476349 139.456039,282.130188 126.332710,286.198730 
z"/>
<path fill="#963BFE" opacity="1.000000" stroke="none" 
	d="
M50.197083,278.313812 
	C50.695984,278.162537 51.266014,278.311462 51.915970,278.753906 
	C51.419998,278.902924 50.844101,278.758484 50.197083,278.313812 
z"/>
</svg>